<svg width="18" height="18" viewBox="0 0 18 18" fill="none" xmlns="http://www.w3.org/2000/svg">
<path d="M17.175 8.25C16.9875 8.25 16.822 8.1845 16.6785 8.0535C16.5345 7.922 16.4438 7.7625 16.4063 7.575C16.0813 5.9375 15.3033 4.55625 14.0723 3.43125C12.8408 2.30625 11.375 1.675 9.67502 1.5375L10.3125 2.175C10.45 2.3125 10.5188 2.4875 10.5188 2.7C10.5188 2.9125 10.45 3.0875 10.3125 3.225C10.175 3.3625 10 3.43125 9.78753 3.43125C9.57503 3.43125 9.40003 3.3625 9.26253 3.225L7.23752 1.2C7.01253 0.975 6.92803 0.75 6.98403 0.525C7.04053 0.3 7.22503 0.1625 7.53753 0.1125C7.78753 0.075 8.03128 0.04675 8.26877 0.02775C8.50628 0.00925 8.75003 0 9.00003 0C11.225 0 13.172 0.70625 14.841 2.11875C16.5095 3.53125 17.5313 5.3125 17.9063 7.4625C17.9438 7.675 17.8908 7.8595 17.7473 8.016C17.6033 8.172 17.4125 8.25 17.175 8.25ZM9.00003 18C6.77503 18 4.82827 17.2937 3.15978 15.8812C1.49077 14.4687 0.468775 12.6875 0.0937752 10.5375C0.0562752 10.325 0.109525 10.1405 0.253525 9.984C0.397025 9.828 0.587525 9.75 0.825025 9.75C1.01253 9.75 1.17828 9.8155 1.32228 9.9465C1.46578 10.078 1.55628 10.2375 1.59378 10.425C1.91878 12.0625 2.69703 13.4437 3.92852 14.5687C5.15952 15.6937 6.62503 16.325 8.32503 16.4625L7.68753 15.825C7.55003 15.6875 7.48128 15.5125 7.48128 15.3C7.48128 15.0875 7.55003 14.9125 7.68753 14.775C7.82503 14.6375 8.00003 14.5687 8.21253 14.5687C8.42502 14.5687 8.60003 14.6375 8.73752 14.775L10.7625 16.8C10.9875 17.025 11.072 17.25 11.016 17.475C10.9595 17.7 10.775 17.8375 10.4625 17.8875C10.2125 17.925 9.96878 17.953 9.73128 17.9715C9.49378 17.9905 9.25003 18 9.00003 18Z" fill="#5F5F5F"/>
</svg>
