<svg width="10" height="10" viewBox="0 0 10 10" fill="none" xmlns="http://www.w3.org/2000/svg">
<path d="M5 9.59375C4.89591 9.59375 4.79378 9.58229 4.6936 9.55937C4.59343 9.53681 4.49879 9.49897 4.40967 9.44585L1.42378 7.76269C1.23092 7.64917 1.07692 7.49581 0.961778 7.30261C0.846634 7.1094 0.789062 6.89528 0.789062 6.66023V3.35123C0.789062 3.11618 0.846634 2.90406 0.961778 2.71486C1.07692 2.5253 1.23092 2.37357 1.42378 2.25969L4.40967 0.565615C4.49879 0.512493 4.59343 0.472652 4.6936 0.446091C4.79378 0.41953 4.89591 0.40625 5 0.40625C5.10409 0.40625 5.20622 0.41953 5.3064 0.446091C5.40657 0.472652 5.50121 0.512493 5.59033 0.565615L8.57622 2.25969C8.76908 2.37357 8.92308 2.5253 9.03822 2.71486C9.15337 2.90406 9.21094 3.11618 9.21094 3.35123V6.66023C9.21094 6.89528 9.15337 7.1094 9.03822 7.30261C8.92308 7.49581 8.76908 7.64917 8.57622 7.76269L5.59033 9.44585C5.50121 9.49897 5.40657 9.53681 5.3064 9.55937C5.20622 9.58229 5.10409 9.59375 5 9.59375ZM3.68565 3.60174C3.85641 3.43473 4.05122 3.30393 4.2701 3.20933C4.48934 3.11436 4.73264 3.06688 5 3.06688C5.26736 3.06688 5.51066 3.11436 5.7299 3.20933C5.94878 3.30393 6.14003 3.43473 6.30365 3.60174L7.36187 3.01012L5 1.65716L2.63813 3.01012L3.68565 3.60174ZM4.44282 8.02466V6.85344C4.04926 6.77012 3.72807 6.55781 3.47925 6.21652C3.23043 5.8756 3.10601 5.47009 3.10601 5V4.80079C3.10601 4.73639 3.11724 4.67399 3.1397 4.61359L2.01465 3.97668V6.67115L4.44282 8.02466ZM5 5.79573C5.21531 5.79573 5.39908 5.71805 5.5513 5.56269C5.70352 5.40733 5.77962 5.21976 5.77962 5C5.77962 4.78024 5.70352 4.59267 5.5513 4.43731C5.39908 4.28195 5.21531 4.20427 5 4.20427C4.78469 4.20427 4.60092 4.28195 4.4487 4.43731C4.29648 4.59267 4.22037 4.78024 4.22037 5C4.22037 5.21976 4.29648 5.40733 4.4487 5.56269C4.60092 5.71805 4.78469 5.79573 5 5.79573ZM5.55718 8.02466L7.98535 6.67115V3.97668L6.8603 4.61359C6.88276 4.67399 6.89399 4.73639 6.89399 4.80079V5C6.89399 5.47009 6.76957 5.8756 6.52075 6.21652C6.27193 6.55781 5.95074 6.77012 5.55718 6.85344V8.02466Z" fill="#5F5F5F"/>
</svg>
